<svg width="128" height="128" viewBox="0 0 128 128" fill="none" xmlns="http://www.w3.org/2000/svg">
<path d="M85.0051 59.0295C84.6361 58.2764 84.9524 57.3728 85.7054 57.0038C86.4584 56.6349 87.362 56.9511 87.731 57.7041C88.1 58.4572 87.7837 59.3608 87.0307 59.7298C86.2777 60.0987 85.3741 59.7825 85.0051 59.0295ZM92.332 74.0898C91.963 73.3368 92.2792 72.4332 93.0323 72.0642C93.7853 71.6952 94.6889 72.0115 95.0579 72.7645C95.4269 73.5175 95.1106 74.4211 94.3576 74.7901C93.6046 75.1591 92.7009 74.8428 92.332 74.0898ZM92.972 54.549C88.1527 51.1077 81.865 50.2192 76.0442 52.4707L91.9554 85.1893C97.3169 82.004 100.495 76.4995 100.766 70.5883L106.805 71.0175C107.151 71.0401 107.453 70.7841 107.475 70.4301C107.498 70.0837 107.242 69.7825 106.888 69.76L100.773 69.3232C100.713 66.7479 100.096 64.1199 98.8681 61.5897C97.6407 59.0671 95.954 56.9587 93.966 55.3171L97.3998 50.2342C97.5955 49.9481 97.5202 49.5565 97.2341 49.3607C96.948 49.1649 96.5564 49.2402 96.3606 49.5264L92.972 54.5415" fill="#3DDC84"/>
</svg>
