<svg xmlns="http://www.w3.org/2000/svg" width="256" height="256" viewBox="0 0 256 256">
  <g id="compose" transform="translate(-3895 5636)">
    <g id="jetpack-compose-hero" transform="translate(3836.316 -5608.622)">
      <path id="Path_118519" data-name="Path 118519" d="M191.85,160a3.026,3.026,0,0,1-.35-.967A3.429,3.429,0,0,0,191.85,160Z" transform="translate(-22.068 -49.453)" fill="#073042"/>
      <path id="Path_118520" data-name="Path 118520" d="M191.844,124.857a4.155,4.155,0,0,0-.308,1.256A4.155,4.155,0,0,1,191.844,124.857Z" transform="translate(-22.084 -33.512)" fill="#073042"/>
      <path id="Path_118521" data-name="Path 118521" d="M192.965,161.854a2.17,2.17,0,0,0,.555.411l14.023,7.925-14.023-7.925A2.17,2.17,0,0,1,192.965,161.854Z" transform="translate(-22.751 -50.767)" fill="#073042"/>
      <path id="Path_118522" data-name="Path 118522" d="M186.95,150.727h-.1a6.122,6.122,0,0,1-2.981-.761l-20.932-11.817a3.912,3.912,0,0,1-1.994-3.4V110.708a6.426,6.426,0,0,1,.616-2.882l-16.366-9.2a10.87,10.87,0,0,0-1.007,4.776v39.711a6.518,6.518,0,0,0,3.31,5.62l34.522,19.516a9.949,9.949,0,0,0,4.914,1.276V169.5C186.971,167.011,186.95,157.027,186.95,150.727Z" transform="translate(0 -21.278)" fill="#073042"/>
      <path id="Path_118523" data-name="Path 118523" d="M254.737,123.526l-.124-.185c-.1-.144-.205-.267-.308-.411.1.123.206.267.308.411A.731.731,0,0,1,254.737,123.526Z" transform="translate(-51.358 -32.613)" fill="#3ddc84"/>
      <path id="Path_118524" data-name="Path 118524" d="M192.461,123.708a5.119,5.119,0,0,1,.288-.433A5.119,5.119,0,0,0,192.461,123.708Z" transform="translate(-22.516 -32.774)" fill="#3ddc84"/>
      <path id="Path_118525" data-name="Path 118525" d="M222.826,105.975c.1,0,.185-.021.288-.021A1.441,1.441,0,0,1,222.826,105.975Z" transform="translate(-36.677 -24.696)" fill="#3ddc84"/>
      <path id="Path_118526" data-name="Path 118526" d="M162.418,86.528a5.382,5.382,0,0,1,2.1-2.306l19.7-11.631a5.937,5.937,0,0,1,5.963-.062l19.9,11.261a6.706,6.706,0,0,1,2.241,2.059l16.1-9.614a11.121,11.121,0,0,0-3.68-3.376L191.861,54.269a9.807,9.807,0,0,0-9.828.1L149.526,73.558a8.743,8.743,0,0,0-3.454,3.788Z" transform="translate(-0.881)" fill="#3ddc84"/>
      <path id="Path_118527" data-name="Path 118527" d="M221.286,106.265c.041-.021.082-.021.123-.041C221.368,106.244,221.327,106.244,221.286,106.265Z" transform="translate(-35.959 -24.822)" fill="#3ddc84"/>
      <path id="Path_118528" data-name="Path 118528" d="M192.178,124.311a2.278,2.278,0,0,1,.123-.226c-.041.082-.082.144-.123.226l-.062.186Z" transform="translate(-22.355 -33.152)" fill="#3ddc84"/>
      <path id="Path_118529" data-name="Path 118529" d="M264.879,96.541l-16.1,9.614a5.678,5.678,0,0,1,1.007,3.067v22.891a5.926,5.926,0,0,1-2.919,5.188l-19.7,11.631a5.953,5.953,0,0,1-2.858.824c.021,6.279.021,16.263-.02,18.754v.02a9.979,9.979,0,0,0,4.914-1.359l32.507-19.207a9.821,9.821,0,0,0,4.832-8.564V101.626A9.2,9.2,0,0,0,264.879,96.541Z" transform="translate(-37.361 -20.306)" fill="#4285f4"/>
      <path id="Path_118530" data-name="Path 118530" d="M255.773,158.612c-.02.041-.02.083-.041.124A.291.291,0,0,0,255.773,158.612Z" transform="translate(-52.024 -49.255)" fill="#4285f4"/>
      <path id="Path_118531" data-name="Path 118531" d="M255.279,124.3a2.085,2.085,0,0,0-.164-.288C255.176,124.111,255.238,124.214,255.279,124.3Z" transform="translate(-51.736 -33.116)" fill="#4285f4"/>
      <path id="Path_118532" data-name="Path 118532" d="M227.759,170.494l13.2-7.8c.082-.041.144-.1.226-.144-.082.041-.144.1-.226.144Z" transform="translate(-38.978 -51.09)" fill="#4285f4"/>
      <path id="Path_118533" data-name="Path 118533" d="M255.375,159.5c-.041.1-.1.206-.144.309A1.079,1.079,0,0,1,255.375,159.5Z" transform="translate(-51.79 -49.669)" fill="#4285f4"/>
      <path id="Path_118534" data-name="Path 118534" d="M253.689,161.426a4.813,4.813,0,0,0,.535-.576A4.813,4.813,0,0,1,253.689,161.426Z" transform="translate(-51.071 -50.298)" fill="#4285f4"/>
      <path id="Path_118535" data-name="Path 118535" d="M254.94,160.04c-.083.144-.185.288-.288.432C254.755,160.328,254.857,160.184,254.94,160.04Z" transform="translate(-51.52 -49.921)" fill="#4285f4"/>
      <path id="Path_118536" data-name="Path 118536" d="M191.829,116.023a4.152,4.152,0,0,0-.308,1.256,4.088,4.088,0,0,0-.021.514v16.119a1.98,1.98,0,0,0,.021.35,2.285,2.285,0,0,0,.35.967,3.7,3.7,0,0,0,.411.535,2.173,2.173,0,0,0,.556.411l14.023,7.926a4.056,4.056,0,0,0,1.994.514H209a3.8,3.8,0,0,0,1.851-.555l13.2-7.8c.082-.041.144-.1.226-.144a3.206,3.206,0,0,0,.411-.33,4.735,4.735,0,0,0,.535-.576,5.185,5.185,0,0,0,.288-.432,2.058,2.058,0,0,0,.144-.309c.041-.1.1-.226.144-.35.02-.042.02-.083.041-.124a4.084,4.084,0,0,0,.185-1.235V117.423a3.6,3.6,0,0,0-.1-.823,3.827,3.827,0,0,0-.164-.515l-.123-.247a2.1,2.1,0,0,0-.165-.289l-.123-.185c-.1-.144-.205-.267-.308-.411a4.167,4.167,0,0,0-1.193-.967L210.5,106.429a4.6,4.6,0,0,0-.72-.329,4.315,4.315,0,0,0-1.028-.185h-.267a1.344,1.344,0,0,0-.288.021,4.105,4.105,0,0,0-.7.123c-.041.021-.082.021-.123.041a3.775,3.775,0,0,0-.884.391l-13.2,7.8a3.4,3.4,0,0,0-.987.885c-.1.144-.206.288-.288.432-.041.082-.082.144-.123.227Z" transform="translate(-22.068 -24.678)" fill="#f7f7f7"/>
      <path id="Path_118537" data-name="Path 118537" d="M201.556,149.241h-.144a4.057,4.057,0,0,1-1.994-.515L185.4,140.8a2.77,2.77,0,0,1-.556-.412,2.455,2.455,0,0,1-.411-.535,3,3,0,0,1-.35-.967,1.974,1.974,0,0,1-.021-.35V122.418a4.248,4.248,0,0,1,.021-.514,4.325,4.325,0,0,1,.308-1.256l-3.783-2.326-4.441-2.491a6.709,6.709,0,0,0-.617,2.882v24.045a4,4,0,0,0,1.995,3.4l20.911,11.837a5.9,5.9,0,0,0,2.981.762h.1c0-3.067-.02-5.25-.02-5.25Z" transform="translate(-14.627 -29.302)" fill="#073042"/>
      <path id="Path_118538" data-name="Path 118538" d="M201.556,149.241h-.144a4.057,4.057,0,0,1-1.994-.515L185.4,140.8a2.77,2.77,0,0,1-.556-.412,2.455,2.455,0,0,1-.411-.535,3,3,0,0,1-.35-.967,1.974,1.974,0,0,1-.021-.35V122.418a4.248,4.248,0,0,1,.021-.514,4.325,4.325,0,0,1,.308-1.256l-3.783-2.326-4.441-2.491a6.709,6.709,0,0,0-.617,2.882v24.045a4,4,0,0,0,1.995,3.4l20.911,11.837a5.9,5.9,0,0,0,2.981.762h.1c0-3.067-.02-5.25-.02-5.25Z" transform="translate(-14.627 -29.302)" fill="#041619"/>
      <path id="Path_118539" data-name="Path 118539" d="M224.326,100.182l-19.9-11.261a5.938,5.938,0,0,0-5.963.062l-19.7,11.631a5.268,5.268,0,0,0-2.1,2.306l4.462,2.49,3.783,2.327.061-.185a2.233,2.233,0,0,1,.123-.227c.083-.144.185-.288.288-.432a3.714,3.714,0,0,1,.987-.885l13.2-7.8a4.856,4.856,0,0,1,.884-.391c.041-.02.082-.02.123-.041a3.781,3.781,0,0,1,.7-.123c.1,0,.185-.021.288-.021h.267a4.509,4.509,0,0,1,1.028.185,3.252,3.252,0,0,1,.72.329l13.344,7.556a4.476,4.476,0,0,1,1.192.967c.1.123.206.267.308.411l.123.185,3.414-2.285,4.626-2.779A7.11,7.11,0,0,0,224.326,100.182Z" transform="translate(-15.149 -16.393)" fill="#3ddc84"/>
      <path id="Path_118540" data-name="Path 118540" d="M224.326,100.182l-19.9-11.261a5.938,5.938,0,0,0-5.963.062l-19.7,11.631a5.268,5.268,0,0,0-2.1,2.306l4.462,2.49,3.783,2.327.061-.185a2.233,2.233,0,0,1,.123-.227c.083-.144.185-.288.288-.432a3.714,3.714,0,0,1,.987-.885l13.2-7.8a4.856,4.856,0,0,1,.884-.391c.041-.02.082-.02.123-.041a3.781,3.781,0,0,1,.7-.123c.1,0,.185-.021.288-.021h.267a4.509,4.509,0,0,1,1.028.185,3.252,3.252,0,0,1,.72.329l13.344,7.556a4.476,4.476,0,0,1,1.192.967c.1.123.206.267.308.411l.123.185,3.414-2.285,4.626-2.779A7.11,7.11,0,0,0,224.326,100.182Z" transform="translate(-15.149 -16.393)" fill="#37bf6e"/>
      <path id="Path_118541" data-name="Path 118541" d="M240.723,119.657c.061.1.1.185.164.288l.123.247a4.911,4.911,0,0,1,.164.514,3.6,3.6,0,0,1,.1.823v15.337a4.084,4.084,0,0,1-.185,1.235c-.02.042-.02.083-.041.124a2.511,2.511,0,0,1-.144.35c-.041.1-.1.206-.144.308-.082.144-.185.288-.288.433a4.661,4.661,0,0,1-.535.576,3.247,3.247,0,0,1-.411.329c-.082.041-.144.1-.226.144l-13.2,7.8a4.3,4.3,0,0,1-1.851.556v4.261s0,2.182.021,5.249a5.734,5.734,0,0,0,2.858-.823l19.7-11.631a5.976,5.976,0,0,0,2.92-5.188V117.7a5.628,5.628,0,0,0-1.007-3.067l-4.627,2.779Z" transform="translate(-37.343 -28.744)" fill="#4285f4"/>
      <path id="Path_118542" data-name="Path 118542" d="M240.723,119.657c.061.1.1.185.164.288l.123.247a4.911,4.911,0,0,1,.164.514,3.6,3.6,0,0,1,.1.823v15.337a4.084,4.084,0,0,1-.185,1.235c-.02.042-.02.083-.041.124a2.511,2.511,0,0,1-.144.35c-.041.1-.1.206-.144.308-.082.144-.185.288-.288.433a4.661,4.661,0,0,1-.535.576,3.247,3.247,0,0,1-.411.329c-.082.041-.144.1-.226.144l-13.2,7.8a4.3,4.3,0,0,1-1.851.556v4.261s0,2.182.021,5.249a5.734,5.734,0,0,0,2.858-.823l19.7-11.631a5.976,5.976,0,0,0,2.92-5.188V117.7a5.628,5.628,0,0,0-1.007-3.067l-4.627,2.779Z" transform="translate(-37.343 -28.744)" fill="#3870b2"/>
      <path id="Path_118543" data-name="Path 118543" d="M208.978,106.3a3.719,3.719,0,0,0-.884.391l-13.2,7.8,13.2-7.8A3.384,3.384,0,0,1,208.978,106.3Z" transform="translate(-23.651 -24.858)" fill="#d7effe"/>
      <path id="Path_118544" data-name="Path 118544" d="M208.978,106.3a3.719,3.719,0,0,0-.884.391l-13.2,7.8,13.2-7.8A3.384,3.384,0,0,1,208.978,106.3Z" transform="translate(-23.651 -24.858)" opacity="0.1"/>
      <path id="Path_118545" data-name="Path 118545" d="M241.6,115.48a4.191,4.191,0,0,0-1.193-.967l-13.344-7.555,13.344,7.555A4.191,4.191,0,0,1,241.6,115.48Z" transform="translate(-38.653 -25.164)" fill="#d7effe"/>
      <path id="Path_118546" data-name="Path 118546" d="M241.6,115.48a4.191,4.191,0,0,0-1.193-.967l-13.344-7.555,13.344,7.555A4.191,4.191,0,0,1,241.6,115.48Z" transform="translate(-38.653 -25.164)" opacity="0.1"/>
      <path id="Path_118547" data-name="Path 118547" d="M221.515,106.116a3.809,3.809,0,0,1,.7-.124A3.809,3.809,0,0,0,221.515,106.116Z" transform="translate(-36.066 -24.714)" fill="#d7effe"/>
      <path id="Path_118548" data-name="Path 118548" d="M221.515,106.116a3.809,3.809,0,0,1,.7-.124A3.809,3.809,0,0,0,221.515,106.116Z" transform="translate(-36.066 -24.714)" opacity="0.1"/>
      <path id="Path_118549" data-name="Path 118549" d="M223.826,105.992a4.543,4.543,0,0,1,1.028.185A4.543,4.543,0,0,0,223.826,105.992Z" transform="translate(-37.144 -24.714)" fill="#d7effe"/>
      <path id="Path_118550" data-name="Path 118550" d="M223.826,105.992a4.543,4.543,0,0,1,1.028.185A4.543,4.543,0,0,0,223.826,105.992Z" transform="translate(-37.144 -24.714)" opacity="0.1"/>
      <path id="Path_118551" data-name="Path 118551" d="M255.6,158.844a2.57,2.57,0,0,1-.144.35A2.57,2.57,0,0,0,255.6,158.844Z" transform="translate(-51.897 -49.363)" fill="#d7effe"/>
      <path id="Path_118552" data-name="Path 118552" d="M255.6,158.844a2.57,2.57,0,0,1-.144.35A2.57,2.57,0,0,0,255.6,158.844Z" transform="translate(-51.897 -49.363)" opacity="0.1"/>
      <path id="Path_118553" data-name="Path 118553" d="M255.654,125.012a5.038,5.038,0,0,1,.164.514C255.777,125.362,255.715,125.2,255.654,125.012Z" transform="translate(-51.987 -33.584)" fill="#d7effe"/>
      <path id="Path_118554" data-name="Path 118554" d="M255.654,125.012a5.038,5.038,0,0,1,.164.514C255.777,125.362,255.715,125.2,255.654,125.012Z" transform="translate(-51.987 -33.584)" opacity="0.1"/>
      <path id="Path_118555" data-name="Path 118555" d="M255.806,144.13a4.07,4.07,0,0,0,.185-1.235v0A4.07,4.07,0,0,1,255.806,144.13Z" transform="translate(-52.058 -34.772)" fill="#d7effe"/>
      <path id="Path_118556" data-name="Path 118556" d="M255.806,144.13a4.07,4.07,0,0,0,.185-1.235v0A4.07,4.07,0,0,1,255.806,144.13Z" transform="translate(-52.058 -34.772)" opacity="0.1"/>
    </g>
  </g>
</svg>
